<svg id="visual" viewBox="0 0 1200 200" width="1200" height="200" xmlns="http://www.w3.org/2000/svg"
    xmlns:xlink="http://www.w3.org/1999/xlink" version="1.1">
    <path
        d="M0 33L11.2 30.3C22.3 27.7 44.7 22.3 66.8 22.3C89 22.3 111 27.7 133.2 29C155.3 30.3 177.7 27.7 200 24.7C222.3 21.7 244.7 18.3 266.8 18.3C289 18.3 311 21.7 333.2 23.3C355.3 25 377.7 25 400 24.7C422.3 24.3 444.7 23.7 466.8 25C489 26.3 511 29.7 533.2 28.3C555.3 27 577.7 21 600 19C622.3 17 644.7 19 666.8 20C689 21 711 21 733.2 21C755.3 21 777.7 21 800 20.3C822.3 19.7 844.7 18.3 866.8 17.7C889 17 911 17 933.2 17.7C955.3 18.3 977.7 19.7 1000 22.3C1022.3 25 1044.7 29 1066.8 30.7C1089 32.3 1111 31.7 1133.2 28.7C1155.3 25.7 1177.7 20.3 1188.8 17.7L1200 15L1200 0L1188.8 0C1177.7 0 1155.3 0 1133.2 0C1111 0 1089 0 1066.8 0C1044.7 0 1022.3 0 1000 0C977.7 0 955.3 0 933.2 0C911 0 889 0 866.8 0C844.7 0 822.3 0 800 0C777.7 0 755.3 0 733.2 0C711 0 689 0 666.8 0C644.7 0 622.3 0 600 0C577.7 0 555.3 0 533.2 0C511 0 489 0 466.8 0C444.7 0 422.3 0 400 0C377.7 0 355.3 0 333.2 0C311 0 289 0 266.8 0C244.7 0 222.3 0 200 0C177.7 0 155.3 0 133.2 0C111 0 89 0 66.8 0C44.7 0 22.3 0 11.2 0L0 0Z"
        fill="#0d4a7d"></path>
    <path
        d="M0 73L11.2 74C22.3 75 44.7 77 66.8 76.3C89 75.7 111 72.3 133.2 75.3C155.3 78.3 177.7 87.7 200 91C222.3 94.3 244.7 91.7 266.8 87C289 82.3 311 75.7 333.2 79.7C355.3 83.7 377.7 98.3 400 98.3C422.3 98.3 444.7 83.7 466.8 79C489 74.3 511 79.7 533.2 80C555.3 80.3 577.7 75.7 600 76.7C622.3 77.7 644.7 84.3 666.8 86C689 87.7 711 84.3 733.2 84C755.3 83.7 777.7 86.3 800 89.3C822.3 92.3 844.7 95.7 866.8 95.7C889 95.7 911 92.3 933.2 90C955.3 87.7 977.7 86.3 1000 88.7C1022.3 91 1044.7 97 1066.8 98.7C1089 100.3 1111 97.7 1133.2 91.7C1155.3 85.7 1177.7 76.3 1188.8 71.7L1200 67L1200 13L1188.8 15.7C1177.7 18.3 1155.3 23.7 1133.2 26.7C1111 29.7 1089 30.3 1066.8 28.7C1044.7 27 1022.3 23 1000 20.3C977.7 17.7 955.3 16.3 933.2 15.7C911 15 889 15 866.8 15.7C844.7 16.3 822.3 17.7 800 18.3C777.7 19 755.3 19 733.2 19C711 19 689 19 666.8 18C644.7 17 622.3 15 600 17C577.7 19 555.3 25 533.2 26.3C511 27.7 489 24.3 466.8 23C444.7 21.7 422.3 22.3 400 22.7C377.7 23 355.3 23 333.2 21.3C311 19.7 289 16.3 266.8 16.3C244.7 16.3 222.3 19.7 200 22.7C177.7 25.7 155.3 28.3 133.2 27C111 25.7 89 20.3 66.8 20.3C44.7 20.3 22.3 25.7 11.2 28.3L0 31Z"
        fill="#115794"></path>
    <path
        d="M0 93L11.2 94.7C22.3 96.3 44.7 99.7 66.8 102.3C89 105 111 107 133.2 113.7C155.3 120.3 177.7 131.7 200 135.3C222.3 139 244.7 135 266.8 130.3C289 125.7 311 120.3 333.2 121.3C355.3 122.3 377.7 129.7 400 127.3C422.3 125 444.7 113 466.8 109.7C489 106.3 511 111.7 533.2 112.3C555.3 113 577.7 109 600 112.3C622.3 115.7 644.7 126.3 666.8 129.7C689 133 711 129 733.2 126.7C755.3 124.3 777.7 123.7 800 125.3C822.3 127 844.7 131 866.8 130.3C889 129.7 911 124.3 933.2 124.3C955.3 124.3 977.7 129.7 1000 133C1022.3 136.3 1044.7 137.7 1066.8 136C1089 134.3 1111 129.7 1133.2 122C1155.3 114.3 1177.7 103.7 1188.8 98.3L1200 93L1200 65L1188.8 69.7C1177.7 74.3 1155.3 83.7 1133.2 89.7C1111 95.7 1089 98.3 1066.8 96.7C1044.7 95 1022.3 89 1000 86.7C977.7 84.3 955.3 85.7 933.2 88C911 90.3 889 93.7 866.8 93.7C844.7 93.7 822.3 90.3 800 87.3C777.7 84.3 755.3 81.7 733.2 82C711 82.3 689 85.7 666.8 84C644.7 82.3 622.3 75.7 600 74.7C577.7 73.7 555.3 78.3 533.2 78C511 77.7 489 72.3 466.8 77C444.7 81.7 422.3 96.3 400 96.3C377.7 96.3 355.3 81.7 333.2 77.7C311 73.7 289 80.3 266.8 85C244.7 89.7 222.3 92.3 200 89C177.7 85.7 155.3 76.3 133.2 73.3C111 70.3 89 73.7 66.8 74.3C44.7 75 22.3 73 11.2 72L0 71Z"
        fill="#1864ab"></path>
    <path
        d="M0 123L11.2 123.7C22.3 124.3 44.7 125.7 66.8 127.7C89 129.7 111 132.3 133.2 139C155.3 145.7 177.7 156.3 200 161.7C222.3 167 244.7 167 266.8 162C289 157 311 147 333.2 145C355.3 143 377.7 149 400 149.3C422.3 149.7 444.7 144.3 466.8 143C489 141.7 511 144.3 533.2 144C555.3 143.7 577.7 140.3 600 144.3C622.3 148.3 644.7 159.7 666.8 161C689 162.3 711 153.7 733.2 151.3C755.3 149 777.7 153 800 154.7C822.3 156.3 844.7 155.7 866.8 152.7C889 149.7 911 144.3 933.2 144.7C955.3 145 977.7 151 1000 153.7C1022.3 156.3 1044.7 155.7 1066.8 154C1089 152.3 1111 149.7 1133.2 144C1155.3 138.3 1177.7 129.7 1188.8 125.3L1200 121L1200 91L1188.8 96.3C1177.7 101.7 1155.3 112.3 1133.2 120C1111 127.7 1089 132.3 1066.8 134C1044.7 135.7 1022.3 134.3 1000 131C977.7 127.7 955.3 122.3 933.2 122.3C911 122.3 889 127.7 866.8 128.3C844.7 129 822.3 125 800 123.3C777.7 121.7 755.3 122.3 733.2 124.7C711 127 689 131 666.8 127.7C644.7 124.3 622.3 113.7 600 110.3C577.7 107 555.3 111 533.2 110.3C511 109.7 489 104.3 466.8 107.7C444.7 111 422.3 123 400 125.3C377.7 127.7 355.3 120.3 333.2 119.3C311 118.3 289 123.7 266.8 128.3C244.7 133 222.3 137 200 133.3C177.7 129.7 155.3 118.3 133.2 111.7C111 105 89 103 66.8 100.3C44.7 97.7 22.3 94.3 11.2 92.7L0 91Z"
        fill="#3976b8"></path>
</svg>