<?xml version="1.0" encoding="UTF-8"?>
<svg id="a"
    xmlns="http://www.w3.org/2000/svg" viewBox="0 0 500 500">
    <line x1="250" y1="250" x2="308.5" y2="31.7" style="fill:none; stroke:#fff; stroke-miterlimit:10;"/>
    <line x1="250" y1="250" x2="363" y2="54.3" style="fill:none; stroke:#fff; stroke-miterlimit:10;"/>
    <line x1="250" y1="250" x2="409.8" y2="90.2" style="fill:none; stroke:#fff; stroke-miterlimit:10;"/>
    <line x1="250" y1="250" x2="445.7" y2="137" style="fill:none; stroke:#fff; stroke-miterlimit:10;"/>
    <line x1="250" y1="250" x2="468.3" y2="191.5" style="fill:none; stroke:#fff; stroke-miterlimit:10;"/>
    <line x1="250" y1="250" x2="476" y2="250" style="fill:none; stroke:#fff; stroke-miterlimit:10;"/>
    <line x1="250" y1="250" x2="468.3" y2="308.5" style="fill:none; stroke:#fff; stroke-miterlimit:10;"/>
    <line x1="250" y1="250" x2="445.7" y2="363" style="fill:none; stroke:#fff; stroke-miterlimit:10;"/>
    <line x1="250" y1="250" x2="409.8" y2="409.8" style="fill:none; stroke:#fff; stroke-miterlimit:10;"/>
    <line x1="250" y1="250" x2="363" y2="445.7" style="fill:none; stroke:#fff; stroke-miterlimit:10;"/>
    <line x1="250" y1="250" x2="308.5" y2="468.3" style="fill:none; stroke:#fff; stroke-miterlimit:10;"/>
    <line x1="250" y1="250" x2="250" y2="476" style="fill:none; stroke:#fff; stroke-miterlimit:10;"/>
    <line x1="250" y1="250" x2="191.5" y2="468.3" style="fill:none; stroke:#fff; stroke-miterlimit:10;"/>
    <line x1="250" y1="250" x2="137" y2="445.7" style="fill:none; stroke:#fff; stroke-miterlimit:10;"/>
    <line x1="250" y1="250" x2="90.2" y2="409.8" style="fill:none; stroke:#fff; stroke-miterlimit:10;"/>
    <line x1="250" y1="250" x2="54.3" y2="363" style="fill:none; stroke:#fff; stroke-miterlimit:10;"/>
    <line x1="250" y1="250" x2="31.7" y2="308.5" style="fill:none; stroke:#fff; stroke-miterlimit:10;"/>
    <line x1="250" y1="250" x2="24" y2="250" style="fill:none; stroke:#fff; stroke-miterlimit:10;"/>
    <line x1="250" y1="250" x2="31.7" y2="191.5" style="fill:none; stroke:#fff; stroke-miterlimit:10;"/>
    <line x1="250" y1="250" x2="54.3" y2="137" style="fill:none; stroke:#fff; stroke-miterlimit:10;"/>
    <line x1="250" y1="250" x2="90.2" y2="90.2" style="fill:none; stroke:#fff; stroke-miterlimit:10;"/>
    <line x1="250" y1="250" x2="137" y2="54.3" style="fill:none; stroke:#fff; stroke-miterlimit:10;"/>
    <line x1="250" y1="250" x2="191.5" y2="31.7" style="fill:none; stroke:#fff; stroke-miterlimit:10;"/>
    <line x1="250" y1="250" x2="250" y2="24" style="fill:none; stroke:#fff; stroke-miterlimit:10;"/>
</svg>