<svg id="visual" viewBox="0 0 1200 200" width="1200" height="200" xmlns="http://www.w3.org/2000/svg"
    xmlns:xlink="http://www.w3.org/1999/xlink" version="1.1">

    <path
        d="M0 119L11.2 111.3C22.3 103.7 44.7 88.3 66.8 87.7C89 87 111 101 133.2 102.7C155.3 104.3 177.7 93.7 200 94.3C222.3 95 244.7 107 266.8 108C289 109 311 99 333.2 90.3C355.3 81.7 377.7 74.3 400 74C422.3 73.7 444.7 80.3 466.8 85C489 89.7 511 92.3 533.2 94C555.3 95.7 577.7 96.3 600 96C622.3 95.7 644.7 94.3 666.8 91.7C689 89 711 85 733.2 87C755.3 89 777.7 97 800 101.3C822.3 105.7 844.7 106.3 866.8 100.3C889 94.3 911 81.7 933.2 77.3C955.3 73 977.7 77 1000 80C1022.3 83 1044.7 85 1066.8 80.7C1089 76.3 1111 65.7 1133.2 63C1155.3 60.3 1177.7 65.7 1188.8 68.3L1200 71L1200 15L1188.8 15C1177.7 15 1155.3 15 1133.2 16.7C1111 18.3 1089 21.7 1066.8 25.3C1044.7 29 1022.3 33 1000 32.3C977.7 31.7 955.3 26.3 933.2 25C911 23.7 889 26.3 866.8 28C844.7 29.7 822.3 30.3 800 32C777.7 33.7 755.3 36.3 733.2 37.3C711 38.3 689 37.7 666.8 35.3C644.7 33 622.3 29 600 27C577.7 25 555.3 25 533.2 23.3C511 21.7 489 18.3 466.8 18.3C444.7 18.3 422.3 21.7 400 24.3C377.7 27 355.3 29 333.2 30.3C311 31.7 289 32.3 266.8 31C244.7 29.7 222.3 26.3 200 26.7C177.7 27 155.3 31 133.2 29.7C111 28.3 89 21.7 66.8 19C44.7 16.3 22.3 17.7 11.2 18.3L0 19Z"
        fill="#3976b8"></path>
    <path
        d="M0 145L11.2 140.7C22.3 136.3 44.7 127.7 66.8 127C89 126.3 111 133.7 133.2 133C155.3 132.3 177.7 123.7 200 124C222.3 124.3 244.7 133.7 266.8 136C289 138.3 311 133.7 333.2 126C355.3 118.3 377.7 107.7 400 108.3C422.3 109 444.7 121 466.8 129C489 137 511 141 533.2 138.7C555.3 136.3 577.7 127.7 600 123C622.3 118.3 644.7 117.7 666.8 116.3C689 115 711 113 733.2 114.7C755.3 116.3 777.7 121.7 800 128C822.3 134.3 844.7 141.7 866.8 139.7C889 137.7 911 126.3 933.2 120.7C955.3 115 977.7 115 1000 115.7C1022.3 116.3 1044.7 117.7 1066.8 114.3C1089 111 1111 103 1133.2 99C1155.3 95 1177.7 95 1188.8 95L1200 95L1200 69L1188.8 66.3C1177.7 63.7 1155.3 58.3 1133.2 61C1111 63.7 1089 74.3 1066.8 78.7C1044.7 83 1022.3 81 1000 78C977.7 75 955.3 71 933.2 75.3C911 79.7 889 92.3 866.8 98.3C844.7 104.3 822.3 103.7 800 99.3C777.7 95 755.3 87 733.2 85C711 83 689 87 666.8 89.7C644.7 92.3 622.3 93.7 600 94C577.7 94.3 555.3 93.7 533.2 92C511 90.3 489 87.7 466.8 83C444.7 78.3 422.3 71.7 400 72C377.7 72.3 355.3 79.7 333.2 88.3C311 97 289 107 266.8 106C244.7 105 222.3 93 200 92.3C177.7 91.7 155.3 102.3 133.2 100.7C111 99 89 85 66.8 85.7C44.7 86.3 22.3 101.7 11.2 109.3L0 117Z"
        fill="#1864ab"></path>
    <path
        d="M0 161L11.2 157.7C22.3 154.3 44.7 147.7 66.8 148.7C89 149.7 111 158.3 133.2 159C155.3 159.7 177.7 152.3 200 152.3C222.3 152.3 244.7 159.7 266.8 161C289 162.3 311 157.7 333.2 151C355.3 144.3 377.7 135.7 400 137C422.3 138.3 444.7 149.7 466.8 156.3C489 163 511 165 533.2 163.3C555.3 161.7 577.7 156.3 600 151.7C622.3 147 644.7 143 666.8 139.3C689 135.7 711 132.3 733.2 132.7C755.3 133 777.7 137 800 144C822.3 151 844.7 161 866.8 160.7C889 160.3 911 149.7 933.2 143.3C955.3 137 977.7 135 1000 136.7C1022.3 138.3 1044.7 143.7 1066.8 141.7C1089 139.7 1111 130.3 1133.2 125.3C1155.3 120.3 1177.7 119.7 1188.8 119.3L1200 119L1200 93L1188.8 93C1177.7 93 1155.3 93 1133.2 97C1111 101 1089 109 1066.8 112.3C1044.7 115.7 1022.3 114.3 1000 113.7C977.7 113 955.3 113 933.2 118.7C911 124.3 889 135.7 866.8 137.7C844.7 139.7 822.3 132.3 800 126C777.7 119.7 755.3 114.3 733.2 112.7C711 111 689 113 666.8 114.3C644.7 115.7 622.3 116.3 600 121C577.7 125.7 555.3 134.3 533.2 136.7C511 139 489 135 466.8 127C444.7 119 422.3 107 400 106.3C377.7 105.7 355.3 116.3 333.2 124C311 131.7 289 136.3 266.8 134C244.7 131.7 222.3 122.3 200 122C177.7 121.7 155.3 130.3 133.2 131C111 131.7 89 124.3 66.8 125C44.7 125.7 22.3 134.3 11.2 138.7L0 143Z"
        fill="#115794"></path>
    <path
        d="M0 201L11.2 201C22.3 201 44.7 201 66.8 201C89 201 111 201 133.2 201C155.3 201 177.7 201 200 201C222.3 201 244.7 201 266.8 201C289 201 311 201 333.2 201C355.3 201 377.7 201 400 201C422.3 201 444.7 201 466.8 201C489 201 511 201 533.2 201C555.3 201 577.7 201 600 201C622.3 201 644.7 201 666.8 201C689 201 711 201 733.2 201C755.3 201 777.7 201 800 201C822.3 201 844.7 201 866.8 201C889 201 911 201 933.2 201C955.3 201 977.7 201 1000 201C1022.3 201 1044.7 201 1066.8 201C1089 201 1111 201 1133.2 201C1155.3 201 1177.7 201 1188.8 201L1200 201L1200 117L1188.8 117.3C1177.7 117.7 1155.3 118.3 1133.2 123.3C1111 128.3 1089 137.7 1066.8 139.7C1044.7 141.7 1022.3 136.3 1000 134.7C977.7 133 955.3 135 933.2 141.3C911 147.7 889 158.3 866.8 158.7C844.7 159 822.3 149 800 142C777.7 135 755.3 131 733.2 130.7C711 130.3 689 133.7 666.8 137.3C644.7 141 622.3 145 600 149.7C577.7 154.3 555.3 159.7 533.2 161.3C511 163 489 161 466.8 154.3C444.7 147.7 422.3 136.3 400 135C377.7 133.7 355.3 142.3 333.2 149C311 155.7 289 160.3 266.8 159C244.7 157.7 222.3 150.3 200 150.3C177.7 150.3 155.3 157.7 133.2 157C111 156.3 89 147.7 66.8 146.7C44.7 145.7 22.3 152.3 11.2 155.7L0 159Z"
        fill="#0d4a7d"></path>
</svg>